# File created by Blade
# Date/Time:  Thu Sep 25 19:43:58 2014
# Frame Rate: 120.000 fps
#------------------------------------------------------
:FULLY-SPECIFIED
:DEGREES
262
root 5.328417 27.466165 -6.835904 24.691282 30.362599 -18.998906
Spine -4.358059 -0.420866 -9.704958
Head -28.161216 -9.526942 30.761505
LeftShoulder -4.047988 8.771598 28.253925
LeftArm 24.391229 -13.293232 -33.539602
LeftForeArm 8.080501 0.000000 21.398261
LeftHand -21.798339 0.000000 -6.462260
LeftHandThumb1 -26.253704 0.000000 33.147579
RightShoulder -17.864654 12.944410 -26.251598
RightArm -21.709493 12.383053 54.758415
RightForeArm -25.055467 -0.000000 17.563428
RightHand -10.747251 -0.000000 6.685984
RightHandThumb1 -24.326973 -0.000000 -32.862282
LeftUpLeg -78.806963 24.897514 14.007754
LeftLeg 69.076105 -0.000000 -0.000000
LeftFoot -26.927755 -7.501245 -21.822360
LeftToeBase 7.974133 -0.000000 -0.000000
RightUpLeg -15.762046 -24.881639 -12.477664
RightLeg 6.121879 -0.000000 -0.000000
RightFoot 22.447205 -14.757784 1.960017
RightToeBase -4.423692 -0.000000 0.000000
263
root 5.254084 27.285769 -6.878576 25.080194 30.674410 -19.011757
Spine -4.294491 -0.512351 -10.005934
Head -28.507305 -9.453688 31.061599
LeftShoulder -3.784042 8.488719 28.489433
LeftArm 24.489709 -13.347645 -32.956002
LeftForeArm 8.000636 0.000000 21.533474
LeftHand -21.832220 -0.000000 -6.345877
LeftHandThumb1 -26.253704 0.000000 33.147579
RightShoulder -17.799868 12.925456 -26.139338
RightArm -21.761217 12.471599 54.728126
RightForeArm -24.965903 0.000000 17.535646
RightHand -10.681144 0.000000 6.626386
RightHandThumb1 -24.326973 -0.000000 -32.862282
LeftUpLeg -80.103969 24.994814 13.806204
LeftLeg 70.016960 -0.000000 -0.000000
LeftFoot -26.902051 -7.843658 -21.724642
LeftToeBase 7.793019 -0.000000 -0.000000
RightUpLeg -15.708543 -24.883253 -12.769624
RightLeg 5.909693 -0.000000 -0.000000
RightFoot 23.378311 -14.911570 2.579614
RightToeBase -4.437133 -0.000000 0.000000
264
root 5.178054 27.100922 -6.920861 25.470532 30.977545 -19.002342
Spine -4.221339 -0.615329 -10.298378
Head -28.843882 -9.358147 31.299966
LeftShoulder -3.564940 8.342789 28.711854
LeftArm 24.767956 -13.592571 -32.527089
LeftForeArm 7.812511 -0.000000 21.606238
LeftHand -21.877866 -0.000000 -6.095766
LeftHandThumb1 -26.253704 0.000000 33.147579
RightShoulder -17.741753 12.937626 -26.086459
RightArm -21.790559 12.483754 54.755117
RightForeArm -24.824966 -0.000000 17.476519
RightHand -10.645380 0.000000 6.761708
RightHandThumb1 -24.326973 -0.000000 -32.862282
LeftUpLeg -81.403657 25.089433 13.594666
LeftLeg 70.960601 -0.000000 -0.000000
LeftFoot -26.838960 -8.181894 -21.587317
LeftToeBase 7.473917 -0.000000 -0.000000
RightUpLeg -15.642538 -24.856348 -13.050549
RightLeg 5.667054 -0.000000 -0.000000
RightFoot 24.136257 -15.310825 3.320739
RightToeBase -4.179464 -0.000000 0.000000
265
root 5.099104 26.917092 -6.964981 25.890084 31.241506 -18.958367
Spine -4.126497 -0.709346 -10.618454
Head -29.235523 -9.204055 31.516929
LeftShoulder -3.352879 8.025530 28.919577
LeftArm 24.903376 -13.743428 -32.063271
LeftForeArm 7.894504 -0.000000 21.739134
LeftHand -21.920047 -0.000000 -5.873998
LeftHandThumb1 -26.253704 0.000000 33.147579
RightShoulder -17.656932 12.983067 -25.978706
RightArm -21.874500 12.623973 54.693595
RightForeArm -24.864604 -0.000000 17.522952
RightHand -10.582913 -0.000000 6.895962
RightHandThumb1 -24.326973 -0.000000 -32.862282
LeftUpLeg -82.719900 25.227834 13.277863
LeftLeg 71.861297 -0.000000 -0.000000
LeftFoot -26.790846 -8.456031 -21.381073
LeftToeBase 7.199804 -0.000000 -0.000000
RightUpLeg -15.639437 -24.899048 -13.293215
RightLeg 5.448665 -0.000000 -0.000000
RightFoot 24.738839 -15.570366 3.794216
RightToeBase -4.135865 -0.000000 0.000000
266
root 5.014961 26.731754 -7.007051 26.305307 31.533541 -18.886367
Spine -4.000194 -0.821099 -10.927121
Head -29.618932 -9.044255 31.675917
LeftShoulder -3.138776 7.793923 29.116310
LeftArm 25.088266 -13.921606 -31.619919
LeftForeArm 7.882653 -0.000000 21.888400
LeftHand -21.822661 -0.000000 -5.798017
LeftHandThumb1 -26.253704 0.000000 33.147579
RightShoulder -17.588560 13.045787 -25.924220
RightArm -21.924925 12.699662 54.691256
RightForeArm -24.978072 -0.000000 17.497247
RightHand -10.497806 -0.000000 6.950475
RightHandThumb1 -24.326973 -0.000000 -32.862282
LeftUpLeg -84.048996 25.337443 12.926002
LeftLeg 72.760354 -0.000000 -0.000000
LeftFoot -26.687956 -8.685381 -21.151508
LeftToeBase 6.797075 -0.000000 -0.000000
RightUpLeg -15.568265 -24.952911 -13.519405
RightLeg 5.135118 -0.000000 -0.000000
RightFoot 25.281544 -15.705850 3.913821
RightToeBase -4.561777 -0.000000 0.000000
